<?xml version="1.0" encoding="UTF-8"?>
<!DOCTYPE svg PUBLIC "-//W3C//DTD SVG 1.1//EN" "http://www.w3.org/Graphics/SVG/1.1/DTD/svg11.dtd">
<svg xmlns="http://www.w3.org/2000/svg" version="1.1" width="647px" height="280px" style="shape-rendering:geometricPrecision; text-rendering:geometricPrecision; image-rendering:optimizeQuality; fill-rule:evenodd; clip-rule:evenodd" xmlns:xlink="http://www.w3.org/1999/xlink">
<g><path style="opacity:0.94" fill="#fefffe" d="M 453.5,105.5 C 454.675,105.281 455.675,105.614 456.5,106.5C 455.354,111.738 454.02,116.905 452.5,122C 457.202,122.172 461.868,122.672 466.5,123.5C 465.012,127.787 463.678,132.12 462.5,136.5C 458.217,137.492 453.884,137.826 449.5,137.5C 448.09,145.552 446.423,153.552 444.5,161.5C 445.429,163.638 447.096,164.804 449.5,165C 452.507,165.301 455.507,165.135 458.5,164.5C 458.326,167.874 457.826,171.207 457,174.5C 456.682,176.061 455.849,177.228 454.5,178C 446.468,180.946 438.468,180.946 430.5,178C 426.331,174.662 424.331,170.329 424.5,165C 425.718,155.743 427.385,146.576 429.5,137.5C 427.167,137.5 424.833,137.5 422.5,137.5C 423.138,132.81 423.971,128.144 425,123.5C 427.667,122.833 430.333,122.167 433,121.5C 433.521,118.081 434.355,114.748 435.5,111.5C 441.465,109.181 447.465,107.181 453.5,105.5 Z"/></g>
<g><path style="opacity:0.937" fill="#fefffe" d="M 81.5,117.5 C 83.9892,117.298 86.3225,117.798 88.5,119C 107.608,148.586 134.275,159.586 168.5,152C 186.316,146.186 199.983,135.186 209.5,119C 217.321,116.835 220.821,119.668 220,127.5C 216.265,133.904 211.765,139.737 206.5,145C 210,148.5 213.5,152 217,155.5C 218.833,163.667 215.667,166.833 207.5,165C 203.667,161.167 199.833,157.333 196,153.5C 189.692,158.072 182.859,161.738 175.5,164.5C 175.167,165.167 174.833,165.833 174.5,166.5C 177.046,171.918 177.88,177.584 177,183.5C 172.648,187.665 168.648,187.331 165,182.5C 163.358,177.598 162.191,172.598 161.5,167.5C 153.173,168.687 144.84,168.687 136.5,167.5C 135.624,173.004 134.124,178.337 132,183.5C 125.961,188.348 121.795,187.014 119.5,179.5C 121.163,174.521 122.329,169.521 123,164.5C 115.869,162.127 109.369,158.627 103.5,154C 102.833,153.333 102.167,153.333 101.5,154C 98.1396,157.36 94.8063,160.694 91.5,164C 85.4821,167.111 81.4821,165.445 79.5,159C 82.3181,153.168 86.3181,148.168 91.5,144C 86.402,138.959 81.902,133.459 78,127.5C 76.5812,123.082 77.7478,119.749 81.5,117.5 Z"/></g>
<g><path style="opacity:0.934" fill="#fefffe" d="M 313.5,121.5 C 340.75,118.572 350.916,130.239 344,156.5C 330.913,157.489 317.746,157.823 304.5,157.5C 304.544,161.09 306.211,163.59 309.5,165C 312.682,165.407 315.849,165.907 319,166.5C 325.909,165.722 332.743,164.889 339.5,164C 338.418,167.405 337.584,170.905 337,174.5C 334.463,177.134 331.297,178.634 327.5,179C 315.978,181.496 304.978,180.162 294.5,175C 287.185,168.382 284.685,160.216 287,150.5C 289.836,135.171 298.669,125.504 313.5,121.5 Z M 317.5,134.5 C 321.007,134.307 324.34,134.973 327.5,136.5C 329.223,138.947 329.723,141.613 329,144.5C 321.58,145.647 314.08,145.813 306.5,145C 308.124,139.206 311.79,135.706 317.5,134.5 Z"/></g>
<g><path style="opacity:0.948" fill="#fefffe" d="M 390.5,121.5 C 397.391,120.901 404.058,121.735 410.5,124C 414.358,127.048 416.358,131.048 416.5,136C 413.796,149.852 410.963,163.685 408,177.5C 401.248,178.645 394.414,178.811 387.5,178C 390.394,165.92 393.061,153.753 395.5,141.5C 395.129,137.631 392.963,135.631 389,135.5C 384.352,135.905 380.186,137.572 376.5,140.5C 373.199,153.038 370.532,165.704 368.5,178.5C 361.833,178.5 355.167,178.5 348.5,178.5C 351.91,159.783 355.577,141.117 359.5,122.5C 365.833,122.5 372.167,122.5 378.5,122.5C 378.343,123.873 378.51,125.207 379,126.5C 382.723,124.324 386.556,122.657 390.5,121.5 Z"/></g>
<g><path style="opacity:0.944" fill="#fefffe" d="M 507.5,121.5 C 509.5,121.5 511.5,121.5 513.5,121.5C 513.2,126.501 512.2,131.335 510.5,136C 503.552,136.903 496.885,138.736 490.5,141.5C 487.577,153.781 484.911,166.114 482.5,178.5C 475.833,178.5 469.167,178.5 462.5,178.5C 466.139,160.139 469.972,141.806 474,123.5C 480.444,122.19 486.944,122.19 493.5,123.5C 492.121,124.863 492.287,125.863 494,126.5C 498.558,124.622 503.058,122.956 507.5,121.5 Z"/></g>
<g><path style="opacity:0.95" fill="#fefffe" d="M 235.5,122.5 C 252.167,122.5 268.833,122.5 285.5,122.5C 285.116,126.586 284.283,130.586 283,134.5C 272.833,144 262.667,153.5 252.5,163C 260.827,163.5 269.16,163.666 277.5,163.5C 276.943,168.45 275.943,173.283 274.5,178C 257.503,178.5 240.503,178.667 223.5,178.5C 223.674,175.126 224.174,171.793 225,168.5C 234.863,158.303 245.029,148.47 255.5,139C 247.841,138.5 240.174,138.334 232.5,138.5C 233.5,133.165 234.5,127.832 235.5,122.5 Z"/></g>
<g><path style="opacity:0.943" fill="#fefffe" d="M 520.5,122.5 C 527.175,122.334 533.842,122.5 540.5,123C 537.456,135.216 534.79,147.55 532.5,160C 532.645,164.013 534.811,165.846 539,165.5C 544.134,165.098 548.467,163.098 552,159.5C 554.695,147.192 557.195,134.859 559.5,122.5C 566.167,122.5 572.833,122.5 579.5,122.5C 576.322,139.882 572.822,157.215 569,174.5C 565.721,187.446 557.554,195.279 544.5,198C 533.518,199.779 522.518,199.946 511.5,198.5C 512.064,193.241 513.397,188.241 515.5,183.5C 525.577,185.662 535.577,185.162 545.5,182C 547.661,179.851 548.828,177.351 549,174.5C 547.2,176.317 545.034,177.484 542.5,178C 532.225,182.542 523.059,181.042 515,173.5C 512.629,168.061 511.963,162.394 513,156.5C 515.316,145.084 517.816,133.751 520.5,122.5 Z"/></g>
</svg>
